<?xml version="1.0" encoding="UTF-8" standalone="no"?>
<!-- Created with Inkscape (http://www.inkscape.org/) -->

<svg
   xmlns:dc="http://purl.org/dc/elements/1.1/"
   xmlns:cc="http://creativecommons.org/ns#"
   xmlns:rdf="http://www.w3.org/1999/02/22-rdf-syntax-ns#"
   xmlns:svg="http://www.w3.org/2000/svg"
   xmlns="http://www.w3.org/2000/svg"
   xmlns:sodipodi="http://sodipodi.sourceforge.net/DTD/sodipodi-0.dtd"
   xmlns:inkscape="http://www.inkscape.org/namespaces/inkscape"
   width="210mm"
   height="210mm"
   viewBox="0 0 210 210"
   version="1.1"
   id="svg10817"
   inkscape:version="0.92.4 (5da689c313, 2019-01-14)"
   sodipodi:docname="calmcloud.svg"
   inkscape:export-filename="D:\Server\Code\UpselfMobile\assets\images\check\check1.png"
   inkscape:export-xdpi="96"
   inkscape:export-ydpi="96">
  <defs
     id="defs10811" />
  <sodipodi:namedview
     id="base"
     pagecolor="#ffffff"
     bordercolor="#666666"
     borderopacity="1.0"
     inkscape:pageopacity="0.0"
     inkscape:pageshadow="2"
     inkscape:zoom="0.35"
     inkscape:cx="322.58489"
     inkscape:cy="663.62666"
     inkscape:document-units="mm"
     inkscape:current-layer="g1044"
     showgrid="false"
     inkscape:window-width="1920"
     inkscape:window-height="1137"
     inkscape:window-x="1912"
     inkscape:window-y="32"
     inkscape:window-maximized="1" />
  <metadata
     id="metadata10814">
    <rdf:RDF>
      <cc:Work
         rdf:about="">
        <dc:format>image/svg+xml</dc:format>
        <dc:type
           rdf:resource="http://purl.org/dc/dcmitype/StillImage" />
        <dc:title></dc:title>
      </cc:Work>
    </rdf:RDF>
  </metadata>
  <g
     inkscape:label="Layer 1"
     inkscape:groupmode="layer"
     id="layer1"
     transform="translate(0,-87)">
    <g
       id="g1044"
       transform="matrix(2.4889871,0,0,2.4889871,-79.742233,-455.71906)">
      <path
         inkscape:connector-curvature="0"
         d="m 75.836898,238.05519 c -0.16586,-0.002 -0.33373,-0.002 -0.50368,4.2e-4 -0.90637,0.011 -1.87297,0.0757 -2.92458,0.19128 -8.26981,0.90867 -14.58841,5.47149 -16.46922,11.89287 -0.31808,1.08596 -0.70215,3.48153 -0.85368,5.32346 -0.26374,3.20596 -0.20016,3.66684 1.48979,10.79049 1.48287,6.25131 2.06994,8.11988 3.66949,11.68319 2.25468,5.02275 4.65773,9.65273 7.12748,13.76179 18.09338,8.19288 28.72789,-1.37626 36.852012,-13.81962 -0.0112,0.0142 0.0198,-0.0302 0.0297,-0.0453 -0.01,0.0152 -0.02,0.0301 -0.0297,0.0453 1.3953,-1.49687 2.67581,-4.48578 2.5476,-4.17941 2.22799,-4.80242 -1.43083,-1.68088 -5.02202,-5.95962 -2.209242,-2.66681 -3.226252,-4.5116 -6.507932,-11.80573 -4.51104,-10.02713 -7.78359,-14.25907 -12.71561,-16.44341 -2.15314,-0.95359 -4.20031,-1.4098 -6.6883,-1.43601 z m 31.386382,34.43492 c -0.003,0.008 0.004,0.0166 0.006,0.0249 -0.003,0.006 -0.005,0.0119 -0.007,0.0178 0.004,-0.0284 0.004,-0.0417 9.6e-4,-0.0427 z m 8.6379,22.06902 c 0.0877,-0.0839 -0.24157,0.24219 -0.35911,0.36012 0.11969,-0.12004 0.2396,-0.2399 0.35911,-0.36012 z"
         style="fill:#70cef4;stroke-width:0.36749634"
         id="path909"
         sodipodi:nodetypes="ccscccccccccccccccccccccc" />
      <path
         d="M 108.83402,269.60741 A 35.579498,35.579498 0 0 1 65.115628,294.51707 35.579498,35.579498 0 0 1 40.205759,250.7988 35.579498,35.579498 0 0 1 83.923922,225.88872 35.579498,35.579498 0 0 1 108.8342,269.60677"
         sodipodi:open="true"
         sodipodi:end="0.26748282"
         sodipodi:start="0.26750154"
         sodipodi:ry="35.579498"
         sodipodi:rx="35.579498"
         sodipodi:cy="260.20294"
         sodipodi:cx="74.519936"
         sodipodi:type="arc"
         id="path815"
         style="opacity:1;fill:#c58d6d;fill-opacity:0;fill-rule:evenodd;stroke:#f46dce;stroke-width:7.74789333;stroke-miterlimit:4;stroke-dasharray:none;stroke-opacity:1" />
      <g
         id="g1020"
         transform="matrix(0.29646446,-0.05473182,0.05473182,0.29646446,164.98413,195.95312)">
        <path
           style="fill:#e62a91;stroke-width:1.53722072"
           d="m -340.70212,165.0917 c -2.74778,-1.67536 -4.99597,-4.0324 -4.99597,-5.23787 0,-3.52094 9.03633,-10.15119 13.83499,-10.15119 4.79865,0 13.83498,6.63025 13.83498,10.15119 0,2.90324 -8.98629,8.28398 -13.83498,8.28398 -2.11368,0 -6.09124,-1.37075 -8.83902,-3.04611 z"
           id="path1032"
           inkscape:connector-curvature="0" />
        <path
           style="fill:#050a0c;stroke-width:1.34811497"
           d="m -346.48013,158.80655 c -1.54952,-2.94036 -5.84417,-23.48791 -5.07085,-24.26123 0.30879,-0.30879 2.89327,0.0861 5.74328,0.87743 2.85002,0.79138 9.12509,1.43887 13.9446,1.43887 4.81951,0 11.09458,-0.64749 13.94459,-1.43887 2.85002,-0.79138 5.43595,-1.18476 5.74653,-0.87419 0.87085,0.87086 -3.17298,20.74223 -4.86408,23.90208 -1.49507,2.79357 -1.51243,2.79163 -5.5706,-0.62309 -5.40094,-4.5446 -12.23718,-4.55667 -18.16921,-0.0321 -4.1247,3.14606 -4.54034,3.21974 -5.70426,1.01109 z m -36.0721,-30.55783 c -5.10761,-5.10761 -5.49904,-6.45955 -2.57326,-8.88774 1.66006,-1.37772 2.69388,-0.93669 5.93334,2.53117 5.22327,5.59153 10.58055,5.60764 16.90938,0.0508 2.59883,-2.28181 5.34987,-3.76263 6.11343,-3.29073 3.44327,2.12806 -0.25338,9.59478 -6.27475,12.67414 -1.61955,0.82824 -5.77512,1.5059 -9.23459,1.5059 -5.3558,0 -6.9707,-0.68074 -10.87355,-4.58359 z m 81.02172,2.4857 c -4.42978,-2.27964 -8.68568,-7.02662 -8.73278,-9.74043 -0.059,-3.40013 4.1629,-3.35293 7.80217,0.0872 1.99476,1.88562 4.84014,3.60414 6.32307,3.81893 4.46344,0.64648 9.94313,-1.36849 11.46749,-4.2168 2.05933,-3.84788 6.73206,-3.53208 6.73206,0.45498 0,5.34527 -9.03829,11.70699 -16.60217,11.68566 -1.62002,-0.005 -4.76546,-0.94488 -6.98984,-2.08958 z"
           id="path1022"
           inkscape:connector-curvature="0" />
      </g>
    </g>
  </g>
</svg>
