<?xml version="1.0" encoding="UTF-8" standalone="no"?>
<!-- Created with Inkscape (http://www.inkscape.org/) -->

<svg
   xmlns:dc="http://purl.org/dc/elements/1.1/"
   xmlns:cc="http://creativecommons.org/ns#"
   xmlns:rdf="http://www.w3.org/1999/02/22-rdf-syntax-ns#"
   xmlns:svg="http://www.w3.org/2000/svg"
   xmlns="http://www.w3.org/2000/svg"
   xmlns:sodipodi="http://sodipodi.sourceforge.net/DTD/sodipodi-0.dtd"
   xmlns:inkscape="http://www.inkscape.org/namespaces/inkscape"
   width="210mm"
   height="210mm"
   viewBox="0 0 210 210"
   version="1.1"
   id="svg10817"
   inkscape:version="0.92.4 (5da689c313, 2019-01-14)"
   sodipodi:docname="check6.svg">
  <defs
     id="defs10811" />
  <sodipodi:namedview
     id="base"
     pagecolor="#ffffff"
     bordercolor="#666666"
     borderopacity="1.0"
     inkscape:pageopacity="0.0"
     inkscape:pageshadow="2"
     inkscape:zoom="0.35"
     inkscape:cx="390.66822"
     inkscape:cy="435.05523"
     inkscape:document-units="mm"
     inkscape:current-layer="g1044"
     showgrid="false"
     inkscape:window-width="1920"
     inkscape:window-height="1137"
     inkscape:window-x="3832"
     inkscape:window-y="32"
     inkscape:window-maximized="1" />
  <metadata
     id="metadata10814">
    <rdf:RDF>
      <cc:Work
         rdf:about="">
        <dc:format>image/svg+xml</dc:format>
        <dc:type
           rdf:resource="http://purl.org/dc/dcmitype/StillImage" />
        <dc:title></dc:title>
      </cc:Work>
    </rdf:RDF>
  </metadata>
  <g
     inkscape:label="Layer 1"
     inkscape:groupmode="layer"
     id="layer1"
     transform="translate(0,-87)">
    <g
       id="g1044"
       transform="matrix(2.4889871,0,0,2.4889871,-79.742233,-455.71906)">
      <path
         inkscape:connector-curvature="0"
         d="m 74.925742,237.14401 c -0.165861,-0.002 -0.333731,-0.002 -0.503678,4.1e-4 -0.90637,0.011 -1.87297,0.0757 -2.924587,0.19128 -8.26981,0.90867 -14.588405,5.47149 -16.469215,11.89287 -0.31808,1.08596 -0.702151,3.48153 -0.853677,5.32346 -0.263742,3.20596 -0.200167,3.66684 1.48979,10.79049 1.482869,6.25131 2.069937,8.11988 3.669491,11.68319 2.254674,5.02275 4.657727,9.65273 7.12747,13.76179 18.093382,8.19288 28.727894,-1.37626 36.852014,-13.81962 -0.0112,0.0142 0.0198,-0.0302 0.0297,-0.0453 -0.01,0.0152 -0.02,0.0301 -0.0297,0.0453 1.3953,-1.49687 2.67581,-4.48578 2.5476,-4.17941 2.22799,-4.80242 -1.43083,-1.68088 -5.02202,-5.95962 -2.209235,-2.6668 -3.226247,-4.51159 -6.507933,-11.80572 -4.511033,-10.02713 -7.783581,-14.25907 -12.715609,-16.44341 -2.153134,-0.95359 -4.200306,-1.4098 -6.688298,-1.43601 z m 31.386378,34.43492 c -0.003,0.008 0.004,0.0166 0.006,0.0249 -0.003,0.006 -0.005,0.0119 -0.007,0.0178 0.004,-0.0284 0.004,-0.0417 10e-4,-0.0427 z m 8.6379,22.06902 c 0.0877,-0.0839 -0.24157,0.24219 -0.35911,0.36012 0.11969,-0.12004 0.2396,-0.2399 0.35911,-0.36012 z"
         style="fill:#70cef4;stroke-width:0.36749634"
         id="path909"
         sodipodi:nodetypes="ccscccccccccccccccccccccc" />
      <path
         d="M 107.92287,268.69622 A 35.579498,35.579498 0 0 1 64.204473,293.60588 35.579498,35.579498 0 0 1 39.294603,249.8876 35.579498,35.579498 0 0 1 83.012766,224.97753 35.579498,35.579498 0 0 1 107.92304,268.69557"
         sodipodi:open="true"
         sodipodi:end="0.26748282"
         sodipodi:start="0.26750154"
         sodipodi:ry="35.579498"
         sodipodi:rx="35.579498"
         sodipodi:cy="259.29175"
         sodipodi:cx="73.60878"
         sodipodi:type="arc"
         id="path815"
         style="opacity:1;fill:#c58d6d;fill-opacity:0;fill-rule:evenodd;stroke:#f46dce;stroke-width:7.74789333;stroke-miterlimit:4;stroke-dasharray:none;stroke-opacity:1" />
      <g
         transform="matrix(0.33812243,-0.08498233,0.08498233,0.33812243,38.755186,252.39599)"
         id="g1158">
        <g
           id="g1113"
           transform="translate(-77.30795,32.246095)">
          <g
             id="g1109" />
        </g>
        <g
           id="g20336">
          <path
             inkscape:connector-curvature="0"
             d="m 90.797554,35.575971 c -4.232501,0 -6.780708,0.625772 -8.44978,2.075065 -1.125943,0.977686 -1.19513,1.25696 -0.984419,3.974246 0.41799,5.390433 2.965294,9.187456 6.960091,10.374086 2.551572,0.757927 5.191495,0.441081 7.730561,-0.927697 2.702935,-1.457119 4.422013,-4.790284 4.720833,-9.152831 0.2086,-3.045495 0.15422,-3.275813 -1.018009,-4.293677 -1.602024,-1.391077 -4.480021,-2.049192 -8.959277,-2.049192 z"
             style="fill:#11161c;fill-opacity:1;stroke-width:0.45215809"
             id="path1015-9-6" />
          <path
             d="m 62.423649,16.772923 c 0.820778,0.395733 -0.128497,1.301633 -0.657735,1.364187 -1.4342,0.169518 -2.243803,-1.460506 -2.070641,-2.679656 0.309747,-2.180775 2.714346,-3.263733 4.701579,-2.777095 2.916345,0.71416 4.305832,3.982283 3.483548,6.723501 -1.095975,3.653613 -5.254842,5.356895 -8.745423,4.190002 C 54.742437,22.125446 52.722482,17.06435 54.238522,12.826516 56.074649,7.6939316 62.043873,5.3558106 67.027789,7.2236074 72.901163,9.4247412 75.558341,16.305524 73.337152,22.034797 70.772701,28.64947 62.978185,31.626286 56.50404,29.050613 49.147704,26.12397 45.85085,17.414254 48.78177,10.195579 52.06982,2.0973161 61.695771,-1.5198673 69.658727,1.7668559 78.499117,5.4157416 82.436846,15.958687 78.793903,24.665735"
             sodipodi:t0="0"
             sodipodi:argument="-18.400295"
             sodipodi:radius="18.173655"
             sodipodi:revolution="3"
             sodipodi:expansion="1"
             sodipodi:cy="16.772923"
             sodipodi:cx="62.423649"
             id="path20269"
             style="fill:none;fill-rule:evenodd;stroke:#000000;stroke-width:2.36500001;stroke-miterlimit:4;stroke-dasharray:none;stroke-opacity:1"
             sodipodi:type="spiral" />
          <path
             d="m 119.08825,16.23435 c 0.82078,0.395733 -0.1285,1.301634 -0.65774,1.364188 -1.4342,0.169518 -2.2438,-1.460506 -2.07064,-2.679657 0.30975,-2.180774 2.71435,-3.263732 4.70158,-2.777094 2.91635,0.71416 4.30583,3.982282 3.48355,6.723501 -1.09597,3.653613 -5.25484,5.356894 -8.74542,4.190002 -4.39254,-1.468416 -6.4125,-6.529512 -4.89646,-10.767346 1.83613,-5.1325847 7.80535,-7.4707057 12.78927,-5.6029089 5.87337,2.2011338 8.53055,9.0819169 6.30936,14.8111899 -2.56445,6.614673 -10.35897,9.591489 -16.83311,7.015816 -7.35634,-2.926643 -10.65319,-11.636359 -7.72227,-18.8550345 3.28805,-8.0982627 12.914,-11.7154461 20.87696,-8.4287229 8.84039,3.6488857 12.77812,14.1918314 9.13517,22.8988794"
             sodipodi:t0="0"
             sodipodi:argument="-18.400295"
             sodipodi:radius="18.173655"
             sodipodi:revolution="3"
             sodipodi:expansion="1"
             sodipodi:cy="16.23435"
             sodipodi:cx="119.08825"
             id="path20269-7"
             style="fill:none;fill-rule:evenodd;stroke:#000000;stroke-width:2.36500001;stroke-miterlimit:4;stroke-dasharray:none;stroke-opacity:1"
             sodipodi:type="spiral" />
        </g>
      </g>
    </g>
  </g>
</svg>
